<?xml version="1.0" standalone="no"?>
<!DOCTYPE svg PUBLIC "-//W3C//DTD SVG 20010904//EN"
 "http://www.w3.org/TR/2001/REC-SVG-20010904/DTD/svg10.dtd">
<svg version="1.0" xmlns="http://www.w3.org/2000/svg"
 width="926.000000pt" height="1280.000000pt" viewBox="0 0 926.000000 1280.000000"
 preserveAspectRatio="xMidYMid meet">
<g transform="translate(0.000000,1280.000000) scale(0.100000,-0.100000)"
fill="#000000" stroke="none">
<path d="M165 12771 c-69 -32 -108 -73 -142 -149 l-23 -53 0 -6170 0 -6171 30
-63 c34 -72 72 -108 148 -142 l53 -23 4399 0 4399 0 53 23 c76 34 114 70 148
142 l30 63 0 6171 0 6170 -23 53 c-35 77 -73 118 -144 150 l-63 28 -4402 0
-4403 -1 -60 -28z m8580 -6371 l0 -5885 -4115 0 -4115 0 -3 5875 c-1 3231 0
5881 3 5888 3 10 832 12 4117 10 l4113 -3 0 -5885z"/>
<path d="M8349 11324 l-109 -106 -50 46 c-28 26 -76 59 -108 74 -50 24 -69 27
-162 27 -95 0 -111 -3 -162 -28 -75 -37 -159 -128 -189 -204 -16 -43 -22 -79
-22 -138 0 -59 6 -95 22 -138 30 -76 114 -167 189 -204 51 -25 68 -28 162 -28
93 0 111 3 162 27 73 34 146 107 183 181 33 69 44 179 26 253 l-12 48 115 115
c119 120 136 150 97 171 -11 5 -23 10 -26 10 -4 0 -56 -48 -116 -106z m-294
-69 c57 -27 105 -75 105 -103 0 -20 -189 -212 -209 -212 -7 0 -51 36 -96 81
-64 62 -88 80 -107 77 -17 -2 -24 -10 -26 -31 -3 -24 11 -44 99 -133 78 -79
109 -104 129 -104 19 0 51 26 130 105 58 58 110 105 117 105 38 0 14 -141 -37
-214 -80 -117 -240 -157 -368 -92 -173 87 -215 311 -86 455 91 101 226 127
349 66z"/>
<path d="M1050 11138 c-50 -26 -90 -89 -90 -143 0 -53 40 -116 89 -142 l44
-23 2928 2 2928 3 27 21 c102 76 102 202 0 278 l-27 21 -2928 3 -2927 2 -44
-22z"/>
<path d="M8345 10010 c-55 -55 -102 -100 -105 -100 -3 0 -28 20 -55 45 -27 25
-74 58 -104 72 -49 24 -68 27 -156 28 -88 0 -107 -3 -157 -27 -338 -158 -277
-646 89 -718 164 -32 337 60 411 218 22 47 27 71 27 142 0 47 -4 100 -8 118
-9 33 -6 36 107 151 64 64 116 124 116 132 0 8 -5 20 -12 27 -27 27 -55 11
-153 -88z m-300 -64 c56 -25 115 -79 115 -104 0 -21 -189 -212 -210 -212 -9 0
-51 36 -95 80 -79 79 -100 91 -123 68 -28 -28 -11 -55 97 -161 59 -59 114
-107 121 -107 7 0 63 50 125 110 61 61 116 110 122 110 19 0 25 -37 14 -94
-18 -98 -70 -169 -155 -214 -44 -23 -63 -27 -136 -27 -69 0 -93 4 -128 23
-106 57 -168 165 -159 282 14 211 220 334 412 246z"/>
<path d="M1080 9838 c-66 -18 -120 -90 -120 -158 0 -43 33 -104 72 -132 l33
-23 2587 0 2587 0 27 21 c99 73 97 213 -3 275 l-38 24 -2555 2 c-1667 1 -2567
-2 -2590 -9z"/>
<path d="M8345 8700 c-55 -55 -105 -100 -110 -100 -4 0 -30 21 -57 46 -183
171 -479 119 -592 -104 -134 -264 73 -573 366 -549 134 11 259 99 314 220 24
52 29 75 29 147 0 47 -4 99 -8 116 -8 31 -3 37 107 152 64 66 116 126 116 134
0 20 -21 38 -43 38 -12 0 -63 -42 -122 -100z m-297 -64 c47 -24 112 -85 112
-105 0 -9 -47 -63 -105 -121 l-104 -104 -89 87 c-49 48 -93 87 -96 87 -21 0
-46 -23 -46 -43 0 -28 206 -237 234 -237 11 0 67 48 132 112 63 61 117 108
121 104 15 -15 5 -113 -16 -162 -61 -137 -215 -207 -361 -163 -59 18 -130 78
-164 139 -28 50 -31 63 -31 140 0 68 5 93 22 126 36 67 70 101 136 134 57 29
68 31 142 28 49 -3 93 -11 113 -22z"/>
<path d="M1040 8508 c-57 -39 -75 -72 -75 -138 0 -66 18 -99 75 -137 l33 -23
2657 0 2657 0 33 23 c57 38 75 71 75 137 0 66 -18 99 -75 138 l-33 22 -2657 0
-2657 0 -33 -22z"/>
<path d="M7857 7430 c-289 -49 -413 -409 -216 -625 128 -139 331 -166 488 -65
75 49 125 115 152 203 69 221 -67 444 -295 486 -65 12 -61 12 -129 1z m190
-109 c107 -54 165 -145 167 -260 1 -123 -68 -227 -184 -278 -55 -25 -165 -22
-225 5 -142 65 -210 229 -155 374 26 71 108 150 178 173 64 20 165 14 219 -14z"/>
<path d="M1045 7197 c-46 -26 -85 -87 -85 -136 0 -51 36 -117 78 -143 l37 -23
2820 -3 c1551 -2 2839 0 2863 3 84 12 153 108 137 188 -12 53 -43 94 -89 116
l-42 21 -2840 0 -2839 0 -40 -23z"/>
<path d="M7809 6105 c-74 -27 -118 -56 -167 -109 -202 -221 -74 -577 224 -626
117 -19 253 28 335 117 185 200 94 541 -164 618 -61 18 -179 18 -228 0z m181
-76 c146 -33 248 -188 221 -335 -33 -177 -202 -280 -376 -230 -75 23 -163 106
-188 180 -35 101 -14 213 54 290 77 87 178 121 289 95z"/>
<path d="M1073 5899 c-43 -12 -90 -62 -104 -109 -22 -73 12 -155 80 -190 40
-20 41 -20 2936 -20 2437 0 2901 2 2928 14 73 31 116 116 96 189 -14 52 -60
101 -107 115 -49 15 -5778 16 -5829 1z"/>
<path d="M8345 4760 c-55 -55 -106 -100 -111 -100 -5 0 -29 20 -53 44 -24 25
-71 57 -105 73 -53 24 -73 28 -156 28 -87 0 -101 -3 -161 -33 -151 -73 -240
-246 -209 -404 25 -129 92 -218 208 -275 71 -35 82 -38 161 -37 156 1 276 75
343 212 29 59 33 76 33 152 0 47 -4 100 -8 118 -9 33 -6 36 107 151 64 64 116
124 116 132 0 21 -20 39 -43 39 -12 0 -63 -42 -122 -100z m-305 -61 c51 -23
120 -85 120 -109 0 -8 -47 -62 -104 -119 l-104 -104 -90 86 c-50 48 -97 87
-104 87 -20 0 -38 -21 -38 -44 0 -24 206 -236 229 -236 8 0 65 50 126 110 62
61 117 110 123 110 19 0 25 -46 13 -102 -42 -194 -245 -295 -419 -207 -65 32
-99 66 -135 133 -17 33 -22 58 -22 126 0 76 3 91 30 139 35 63 92 115 149 135
62 22 172 20 226 -5z"/>
<path d="M1102 4591 c-47 -8 -85 -32 -116 -75 -16 -20 -21 -42 -21 -86 0 -66
18 -99 75 -137 l33 -23 2929 0 c2707 0 2933 1 2965 17 51 24 84 79 85 142 0
88 -51 147 -139 162 -59 10 -5751 9 -5811 0z"/>
<path d="M8360 3455 c-52 -52 -103 -98 -113 -101 -12 -4 -35 10 -72 45 -148
135 -378 129 -520 -14 -183 -183 -131 -492 103 -607 61 -30 74 -33 162 -33 86
0 101 3 162 32 84 39 142 97 180 180 36 76 47 176 29 249 l-12 47 115 117
c113 114 130 142 104 168 -23 23 -45 11 -138 -83z m-309 -74 c56 -29 109 -80
109 -104 0 -20 -158 -189 -194 -209 -16 -9 -31 2 -101 72 -70 70 -86 81 -111
78 -22 -2 -30 -9 -32 -27 -3 -19 18 -46 104 -132 63 -63 117 -109 128 -109 11
0 67 47 132 111 107 106 113 110 124 89 26 -48 -17 -170 -82 -237 -57 -58
-126 -87 -210 -86 -152 0 -273 115 -286 269 -10 134 67 252 195 300 55 21 170
13 224 -15z"/>
<path d="M1054 3266 c-38 -17 -82 -72 -90 -114 -16 -82 39 -170 121 -191 55
-14 5619 -15 5679 -1 55 12 87 38 114 93 19 36 22 55 17 86 -9 53 -41 99 -85
122 -34 18 -129 19 -2880 19 -2374 -1 -2850 -3 -2876 -14z"/>
<path d="M7803 2166 c-97 -31 -196 -127 -234 -224 -30 -79 -30 -195 0 -275 30
-76 114 -167 189 -204 51 -25 68 -28 162 -28 93 0 111 3 162 27 74 34 146 107
184 183 26 54 29 70 29 160 0 87 -3 107 -26 155 -39 82 -99 144 -177 182 -58
29 -77 33 -157 35 -55 2 -106 -3 -132 -11z m255 -103 c208 -106 206 -411 -3
-518 -50 -26 -69 -30 -134 -29 -94 0 -158 30 -220 100 -141 160 -64 405 149
475 49 16 149 3 208 -28z"/>
<path d="M1050 1948 c-50 -26 -90 -89 -90 -143 0 -54 40 -117 90 -142 l44 -23
2586 0 c2499 0 2586 1 2626 19 62 28 89 73 89 146 0 73 -27 118 -89 146 -40
18 -127 19 -2626 19 l-2586 0 -44 -22z"/>
</g>
</svg>
